<svg width="20" height="20" viewBox="0 0 20 20" fill="none" xmlns="http://www.w3.org/2000/svg">
<g clip-path="url(#clip0_43_17)">
<g filter="url(#filter0_i_43_17)">
<path d="M6.43629 4.00958H4.65411C6.13926 2.72245 7.92144 2.02938 9.90164 2.02938C10.1987 2.02938 10.4957 2.02938 10.7927 2.12839C11.2878 2.2274 11.7828 1.83136 11.8818 1.2373C11.9808 0.742248 11.5848 0.247199 10.9907 0.148189C10.5947 0.049179 10.2977 0.0491791 9.90164 0.0491791C7.5254 0.0491791 5.24817 0.940268 3.46599 2.42542V1.03928C3.46599 0.445219 3.06996 0.0491791 2.4759 0.0491791C1.88184 0.0491791 1.4858 0.445219 1.4858 1.03928V4.99967C1.4858 5.59373 1.88184 5.98977 2.4759 5.98977H6.43629C7.03035 5.98977 7.42639 5.59373 7.42639 4.99967C7.42639 4.40561 7.03035 4.00958 6.43629 4.00958ZM4.95114 12.4254C4.35708 12.4254 3.96104 12.8215 3.96104 13.4155V15.1977C2.67392 13.7125 1.98085 11.9304 1.98085 9.95017C1.98085 9.65314 1.98085 9.35611 2.07986 9.05908C2.17887 8.56403 1.78283 8.06898 1.18877 7.96997C0.693718 7.87096 0.198668 8.267 0.0996583 8.86106C0.000648403 9.2571 0.000648499 9.55413 0.000648499 9.95017C0.000648499 12.3264 0.891738 14.6036 2.37689 16.3858H0.990747C0.396688 16.3858 0.000648499 16.7819 0.000648499 17.3759C0.000648499 17.97 0.396688 18.366 0.990747 18.366H4.95114C5.24817 18.366 5.5452 18.168 5.74322 17.97C5.74322 17.871 5.84223 17.772 5.84223 17.6729C5.84223 17.5739 5.84223 17.5739 5.84223 17.4749V17.3759V13.4155C5.94124 12.8215 5.5452 12.4254 4.95114 12.4254ZM18.8125 3.51453C19.4066 3.51453 19.8026 3.11849 19.8026 2.52443C19.8026 1.93037 19.4066 1.53433 18.8125 1.53433H14.8521C14.7531 1.53433 14.7531 1.53433 14.6541 1.53433C14.5551 1.53433 14.4561 1.63334 14.3571 1.63334C14.2581 1.73235 14.1591 1.73235 14.1591 1.83136C14.1591 1.93037 14.0601 2.02938 14.0601 2.02938C14.0601 2.12839 14.0601 2.12839 14.0601 2.2274V2.32641V6.2868C14.0601 6.88086 14.4561 7.2769 15.0502 7.2769C15.6442 7.2769 16.0403 6.88086 16.0403 6.2868V4.70264C17.3274 6.08878 18.0205 7.96997 18.0205 9.95017C18.0205 10.2472 18.0205 10.5442 17.9214 10.8413C17.8224 11.3363 18.2185 11.8314 18.8125 11.9304H18.9115C19.4066 11.9304 19.8026 11.5343 19.9016 11.0393C19.9016 10.6432 20.0006 10.3462 20.0006 9.95017C20.0006 7.57393 19.1096 5.2967 17.6244 3.51453H18.8125ZM18.1195 14.4056C18.0204 14.3066 17.9214 14.2076 17.8224 14.1086C17.7234 14.0096 17.6244 14.0096 17.5254 14.0096H17.4264H17.3274H13.367C12.7729 14.0096 12.3769 14.4056 12.3769 14.9997C12.3769 15.5937 12.7729 15.9898 13.367 15.9898H15.1492C13.763 17.2769 11.8818 17.97 9.90164 17.97C9.60461 17.97 9.30758 17.97 9.01055 17.871C8.5155 17.772 8.02045 18.168 7.92144 18.7621C7.82243 19.3561 8.21847 19.7522 8.81253 19.8512C9.20857 19.8512 9.5056 19.9502 9.90164 19.9502C12.2779 19.9502 14.5551 19.0591 16.3373 17.5739V18.8611C16.3373 19.4551 16.7333 19.8512 17.3274 19.8512C17.9214 19.8512 18.3175 19.4551 18.3175 18.8611V14.9007C18.3175 14.7026 18.2185 14.5046 18.1195 14.4056Z" fill="#333363"/>
</g>
</g>
<defs>
<filter id="filter0_i_43_17" x="0.000648499" y="0.0491791" width="23" height="19.901" filterUnits="userSpaceOnUse" color-interpolation-filters="sRGB">
<feFlood flood-opacity="0" result="BackgroundImageFix"/>
<feBlend mode="normal" in="SourceGraphic" in2="BackgroundImageFix" result="shape"/>
<feColorMatrix in="SourceAlpha" type="matrix" values="0 0 0 0 0 0 0 0 0 0 0 0 0 0 0 0 0 0 127 0" result="hardAlpha"/>
<feOffset dx="3"/>
<feGaussianBlur stdDeviation="2.5"/>
<feComposite in2="hardAlpha" operator="arithmetic" k2="-1" k3="1"/>
<feColorMatrix type="matrix" values="0 0 0 0 0 0 0 0 0 0 0 0 0 0 0 0 0 0 0.5 0"/>
<feBlend mode="normal" in2="shape" result="effect1_innerShadow_43_17"/>
</filter>
<clipPath id="clip0_43_17">
<rect width="20" height="20" fill="white"/>
</clipPath>
</defs>
</svg>
