<svg width="40" height="40" viewBox="0 0 40 40" fill="none" xmlns="http://www.w3.org/2000/svg">
<g clip-path="url(#clip0_43_136)" filter="url(#filter0_i_43_136)">
<path d="M39.18 0.00480333C31.3717 -0.135197 22.4667 3.94647 16.83 10.2781C11.4434 10.3798 6.19836 12.5881 2.3367 16.4498C2.1117 16.6715 2.0317 17.0031 2.13003 17.3031C2.23003 17.6048 2.49003 17.8231 2.80336 17.8681L9.2267 18.7881L8.43336 19.6765C8.13836 20.0065 8.15336 20.5081 8.4667 20.8215L19.1784 31.5331C19.34 31.6948 19.5534 31.7765 19.7684 31.7765C19.9667 31.7765 20.165 31.7065 20.3234 31.5648L21.2117 30.7715L22.1317 37.1948C22.1767 37.5081 22.4234 37.7381 22.7217 37.8381C22.7984 37.8631 22.8784 37.8748 22.96 37.8748C23.1967 37.8748 23.4384 37.7715 23.605 37.6065C27.4134 33.7981 29.6217 28.5531 29.7234 23.1665C36.0617 17.5181 40.1767 8.61647 39.995 0.818137C39.9834 0.374803 39.625 0.01647 39.18 0.00480333ZM31.5 14.3915C30.6884 15.2031 29.6217 15.6098 28.5534 15.6098C27.485 15.6098 26.4184 15.2031 25.6067 14.3915C23.9834 12.7665 23.9834 10.1231 25.6067 8.49814C27.2317 6.87314 29.875 6.87314 31.5 8.49814C33.125 10.1231 33.125 12.7681 31.5 14.3915Z" fill="#333363"/>
<path d="M4.53999 28.1758C2.75666 29.9591 0.308322 38.0158 0.0349889 38.9274C-0.0533445 39.2208 0.0283222 39.5391 0.243322 39.7558C0.403322 39.9158 0.614989 40.0008 0.833322 40.0008C0.913322 40.0008 0.993322 39.9891 1.07332 39.9658C1.98499 39.6924 10.0417 37.2441 11.825 35.4608C13.8333 33.4524 13.8333 30.1841 11.825 28.1758C9.81499 26.1674 6.54832 26.1691 4.53999 28.1758Z" fill="#333363"/>
</g>
<defs>
<filter id="filter0_i_43_136" x="0" y="0" width="43" height="40" filterUnits="userSpaceOnUse" color-interpolation-filters="sRGB">
<feFlood flood-opacity="0" result="BackgroundImageFix"/>
<feBlend mode="normal" in="SourceGraphic" in2="BackgroundImageFix" result="shape"/>
<feColorMatrix in="SourceAlpha" type="matrix" values="0 0 0 0 0 0 0 0 0 0 0 0 0 0 0 0 0 0 127 0" result="hardAlpha"/>
<feOffset dx="3"/>
<feGaussianBlur stdDeviation="2.5"/>
<feComposite in2="hardAlpha" operator="arithmetic" k2="-1" k3="1"/>
<feColorMatrix type="matrix" values="0 0 0 0 0 0 0 0 0 0 0 0 0 0 0 0 0 0 0.5 0"/>
<feBlend mode="normal" in2="shape" result="effect1_innerShadow_43_136"/>
</filter>
<clipPath id="clip0_43_136">
<rect width="40" height="40" fill="white"/>
</clipPath>
</defs>
</svg>
