<svg width="40" height="40" viewBox="0 0 40 40" fill="none" xmlns="http://www.w3.org/2000/svg">
<g clip-path="url(#clip0_43_145)">
<g filter="url(#filter0_i_43_145)">
<path d="M38.8015 24.3834L35.1249 21.5084C35.1715 21.065 35.2115 20.5467 35.2115 19.9984C35.2115 19.45 35.1731 18.9317 35.1249 18.4884L38.8049 15.6117C39.4882 15.0717 39.6749 14.1134 39.2398 13.3151L35.4165 6.7C35.0081 5.95336 34.1131 5.57 33.2048 5.905L28.8665 7.64664C28.0349 7.04664 27.1631 6.54 26.2615 6.135L25.6015 1.53336C25.4931 0.66 24.7331 0 23.8349 0H16.1682C15.2699 0 14.5116 0.66 14.4049 1.52L13.7432 6.13836C12.8699 6.53172 12.0116 7.03172 11.1432 7.65L6.79321 5.90336C5.97813 5.58836 5.00313 5.94164 4.59813 6.685L0.76985 13.3084C0.31821 14.0717 0.50485 15.0634 1.20321 15.6167L4.87985 18.4917C4.82149 19.0534 4.79321 19.5417 4.79321 20.0001C4.79321 20.4584 4.82157 20.9467 4.87985 21.5101L1.19985 24.3867C0.516491 24.9284 0.331491 25.8867 0.766491 26.6834L4.58985 33.2984C4.99821 34.0434 5.88485 34.43 6.80149 34.0934L11.1399 32.3517C11.9699 32.9501 12.8415 33.4567 13.7432 33.8634L14.4032 38.4634C14.5115 39.34 15.2699 40 16.1699 40H23.8365C24.7348 40 25.4949 39.34 25.6015 38.48L26.2631 33.8634C27.1365 33.4684 27.9931 32.97 28.8631 32.35L33.2131 34.0966C33.4231 34.1783 33.6415 34.22 33.8665 34.22C34.5131 34.22 35.1081 33.8666 35.4081 33.3166L39.2481 26.6666C39.6749 25.8866 39.4881 24.9284 38.8015 24.3834ZM20.0015 26.6666C16.3249 26.6666 13.3349 23.6766 13.3349 20C13.3349 16.3234 16.3249 13.3334 20.0015 13.3334C23.6781 13.3334 26.6681 16.3234 26.6681 20C26.6681 23.6766 23.6781 26.6666 20.0015 26.6666Z" fill="#333363"/>
</g>
</g>
<defs>
<filter id="filter0_i_43_145" x="0.524246" y="0" width="41.9515" height="40" filterUnits="userSpaceOnUse" color-interpolation-filters="sRGB">
<feFlood flood-opacity="0" result="BackgroundImageFix"/>
<feBlend mode="normal" in="SourceGraphic" in2="BackgroundImageFix" result="shape"/>
<feColorMatrix in="SourceAlpha" type="matrix" values="0 0 0 0 0 0 0 0 0 0 0 0 0 0 0 0 0 0 127 0" result="hardAlpha"/>
<feOffset dx="3"/>
<feGaussianBlur stdDeviation="2.5"/>
<feComposite in2="hardAlpha" operator="arithmetic" k2="-1" k3="1"/>
<feColorMatrix type="matrix" values="0 0 0 0 0 0 0 0 0 0 0 0 0 0 0 0 0 0 0.5 0"/>
<feBlend mode="normal" in2="shape" result="effect1_innerShadow_43_145"/>
</filter>
<clipPath id="clip0_43_145">
<rect width="40" height="40" fill="white"/>
</clipPath>
</defs>
</svg>
