<svg width="100" height="107" viewBox="0 0 100 107" fill="none" xmlns="http://www.w3.org/2000/svg">
<g clip-path="url(#clip0_7_9)" filter="url(#filter0_d_7_9)">
<path d="M92.9411 36.4511C94.0937 43.2698 87.0225 41.4536 87.0225 41.4536C84.0633 32.9144 79.3284 33.7109 79.3284 33.7109C83.0353 36.483 83.3156 38.8408 83.3156 38.8408C73.4409 31.6717 60.0151 37.4389 54.9064 40.1472C52.0406 36.0051 46.2466 26.733 48.3025 22.5271C51.0126 17.0149 56.5263 20.1693 56.5263 20.1693C67.6781 19.9781 67.0551 15.8997 67.0551 15.8997C64.0958 18.2575 55.3737 15.8997 55.3737 15.8997C62.9433 15.8997 66.1517 12.7453 66.1517 12.7453C60.5135 14.1791 54.2211 8.02957 54.2211 8.02957C51.916 -4.04641 41.2625 1.08349 41.2625 1.08349C47.9287 -0.0954304 46.1532 7.13741 46.1532 7.13741C37.8048 10.1644 38.5836 15.0075 38.5836 15.0075C41.2937 11.2158 43.5988 10.9291 43.5988 10.9291C35.967 21.9217 43.3185 37.2158 45.499 41.1987C41.5117 44.0345 32.1666 50.2796 27.9613 48.1129C22.5723 45.3408 25.6562 39.7011 25.6562 39.7011C25.5316 28.2943 21.5443 28.9315 21.5443 28.9315C23.8494 31.9585 21.5443 40.8801 21.5443 40.8801C21.5443 33.1374 18.4604 29.8555 18.4604 29.8555C19.8622 35.6227 13.8502 42.059 13.8502 42.059C2.04413 44.4168 7.05936 55.3139 7.05936 55.3139C5.90679 48.4953 12.9779 50.3114 12.9779 50.3114C15.9372 58.8506 20.6721 58.0541 20.6721 58.0541C16.9652 55.282 16.6848 52.9242 16.6848 52.9242C27.1202 60.5075 41.5429 53.6252 45.904 51.2036C48.8321 55.5051 54.2834 64.3629 52.2586 68.4732C49.5486 73.9854 44.0349 70.831 44.0349 70.831C32.8831 70.9585 33.5061 75.0369 33.5061 75.0369C36.4654 72.6791 45.1875 75.0369 45.1875 75.0369C37.6179 75.0369 34.4094 78.1913 34.4094 78.1913C40.0477 76.7575 46.3401 82.907 46.3401 82.907C48.6452 94.983 59.2987 89.8531 59.2987 89.8531C52.6325 91.032 54.408 83.7992 54.408 83.7992C62.7563 80.7722 61.9776 75.9291 61.9776 75.9291C59.2675 79.7207 56.9624 80.0075 56.9624 80.0075C64.4385 69.2698 57.5542 54.3899 55.2179 50.0247C59.4544 46.9977 68.0208 41.581 71.9769 43.6203C77.3659 46.3923 74.282 52.032 74.282 52.032C74.4066 63.4389 78.3939 62.8016 78.3939 62.8016C76.0887 59.7747 78.3939 50.8531 78.3939 50.8531C78.3939 58.5957 81.4778 61.8776 81.4778 61.8776C80.076 56.1104 86.088 49.6742 86.088 49.6742C97.9564 47.3482 92.9411 36.4511 92.9411 36.4511Z" fill="url(#paint0_linear_7_9)"/>
</g>
<defs>
<filter id="filter0_d_7_9" x="0" y="0" width="100" height="107" filterUnits="userSpaceOnUse" color-interpolation-filters="sRGB">
<feFlood flood-opacity="0" result="BackgroundImageFix"/>
<feColorMatrix in="SourceAlpha" type="matrix" values="0 0 0 0 0 0 0 0 0 0 0 0 0 0 0 0 0 0 127 0" result="hardAlpha"/>
<feOffset dy="10"/>
<feGaussianBlur stdDeviation="3"/>
<feComposite in2="hardAlpha" operator="out"/>
<feColorMatrix type="matrix" values="0 0 0 0 0 0 0 0 0 0 0 0 0 0 0 0 0 0 0.25 0"/>
<feBlend mode="normal" in2="BackgroundImageFix" result="effect1_dropShadow_7_9"/>
<feBlend mode="normal" in="SourceGraphic" in2="effect1_dropShadow_7_9" result="shape"/>
</filter>
<linearGradient id="paint0_linear_7_9" x1="49.9972" y1="0.00109863" x2="49.9972" y2="90.9355" gradientUnits="userSpaceOnUse">
<stop stop-color="#0B1025"/>
<stop offset="1" stop-color="#8176AF"/>
</linearGradient>
<clipPath id="clip0_7_9">
<rect width="88" height="91" fill="white" transform="translate(6)"/>
</clipPath>
</defs>
</svg>
