<svg width="194" height="193" viewBox="0 0 194 193" fill="none" xmlns="http://www.w3.org/2000/svg">
<path d="M191.666 77.3088C194.207 91.7703 178.618 87.9184 178.618 87.9184C172.094 69.8078 161.656 71.4972 161.656 71.4972C169.828 77.3764 170.446 82.3771 170.446 82.3771C148.677 67.1723 119.079 79.4037 107.816 85.1477C101.499 76.3627 88.7255 56.6978 93.2579 47.7776C99.2324 36.0868 111.387 42.7769 111.387 42.7769C135.972 42.3715 134.599 33.7216 134.599 33.7216C128.075 38.7223 108.847 33.7216 108.847 33.7216C125.534 33.7216 132.607 27.0315 132.607 27.0315C120.178 30.0725 106.306 17.0301 106.306 17.0301C101.224 -8.58159 77.7379 2.29831 77.7379 2.29831C92.4338 -0.202041 88.5195 15.1379 88.5195 15.1379C70.1152 21.5578 71.832 31.8295 71.832 31.8295C77.8066 23.7878 82.8883 23.1796 82.8883 23.1796C66.0635 46.4937 82.2703 78.9307 87.0774 87.3778C78.2873 93.3921 57.6855 106.637 48.4147 102.042C36.5343 96.1628 43.3329 84.2017 43.3329 84.2017C43.0582 60.0091 34.2682 61.3606 34.2682 61.3606C39.3499 67.7805 34.2682 86.702 34.2682 86.702C34.2682 70.2808 27.4696 63.3204 27.4696 63.3204C30.5598 75.5518 17.306 89.2024 17.306 89.2024C-8.72088 94.2031 2.3354 117.314 2.3354 117.314C-0.205482 102.853 15.3832 106.705 15.3832 106.705C21.9071 124.815 32.3453 123.126 32.3453 123.126C24.1733 117.247 23.5552 112.246 23.5552 112.246C46.5605 128.329 78.3559 113.733 87.9701 108.597C94.4253 117.72 106.443 136.506 101.979 145.224C96.0048 156.915 83.8497 150.224 83.8497 150.224C59.265 150.495 60.6384 159.145 60.6384 159.145C67.1623 154.144 86.3906 159.145 86.3906 159.145C69.7032 159.145 62.6299 165.835 62.6299 165.835C75.0597 162.794 88.9315 175.836 88.9315 175.836C94.0133 201.448 117.499 190.568 117.499 190.568C102.803 193.068 106.718 177.728 106.718 177.728C125.122 171.308 123.405 161.037 123.405 161.037C117.431 169.078 112.349 169.687 112.349 169.687C128.83 146.913 113.654 115.355 108.503 106.097C117.843 99.6768 136.728 88.1887 145.449 92.5136C157.329 98.3928 150.531 110.354 150.531 110.354C150.806 134.547 159.596 133.195 159.596 133.195C154.514 126.775 159.596 107.854 159.596 107.854C159.596 124.275 166.394 131.235 166.394 131.235C163.304 119.004 176.558 105.353 176.558 105.353C202.722 100.42 191.666 77.3088 191.666 77.3088Z" fill="url(#paint0_linear_43_604)"/>
<defs>
<linearGradient id="paint0_linear_43_604" x1="96.9939" y1="0.00268555" x2="96.9939" y2="192.864" gradientUnits="userSpaceOnUse">
<stop stop-color="white"/>
<stop offset="1" stop-color="#8176AF"/>
<stop offset="1" stop-color="#8176AF"/>
</linearGradient>
</defs>
</svg>
